<svg width="546" height="99" viewBox="0 0 546 99" fill="none" xmlns="http://www.w3.org/2000/svg">
<path d="M16.3271 35.5488C19.2096 28.1367 21.1562 22.4653 22.167 18.5347C22.8034 15.6896 22.429 12.9382 21.0439 10.2803C19.6963 7.6224 17.7684 5.88167 15.2603 5.05811C14.2869 4.79606 13.6131 4.72119 13.2388 4.8335C12.9019 4.9458 12.7521 5.17041 12.7896 5.50732C12.827 5.8068 12.958 6.14372 13.1826 6.51807C13.4072 6.89242 13.6131 7.21061 13.8003 7.47266C13.8752 7.58496 13.95 7.67855 14.0249 7.75342C14.811 9.10107 15.1479 10.7669 15.0356 12.751C14.9608 14.6976 14.6987 16.5881 14.2495 18.4224C13.8003 20.2567 13.4259 21.623 13.1265 22.5215C12.4901 24.6553 11.1424 28.3426 9.0835 33.5835C8.52197 35.006 8.03532 36.4473 7.62354 37.9072C7.21175 39.3298 6.70638 40.8646 6.10742 42.5117C3.89876 48.5387 2.21419 54.0604 1.05371 59.0767C-0.106771 64.0555 -0.106771 67.4808 1.05371 69.3525C1.20345 69.5771 1.48421 69.8392 1.896 70.1387C2.30778 70.4382 2.71956 70.7189 3.13135 70.981C3.58057 71.243 3.95492 71.4302 4.25439 71.5425C4.96566 71.9917 5.56462 72.0291 6.05127 71.6548C6.50049 71.2804 6.96842 70.644 7.45508 69.7456C10.113 64.9165 12.6398 59.8441 15.0356 54.5283C17.2443 49.6243 19.6027 44.814 22.1108 40.0972C24.9185 34.744 28.0256 29.3908 31.4321 24.0376C34.8761 18.647 38.8442 13.7243 43.3364 9.26953C43.9728 8.67057 44.422 8.35238 44.6841 8.31494C44.9461 8.24007 45.0584 8.37109 45.021 8.70801C45.021 9.04492 44.9461 9.49414 44.7964 10.0557C44.3472 11.5156 43.8044 13.2376 43.168 15.2217C42.569 17.1683 41.9888 18.9652 41.4272 20.6123C39.3309 26.7516 37.2158 33.3215 35.082 40.3218C32.9482 47.2847 31.5444 52.0202 30.8706 54.5283C29.3358 60.5553 29.055 64.5047 30.0283 66.3765C30.3278 66.8257 30.7957 67.3498 31.4321 67.9487C32.0685 68.5103 32.63 68.9033 33.1167 69.1279C34.0151 69.5771 34.8013 69.3338 35.4751 68.3979C35.6248 68.1733 35.9992 67.4808 36.5981 66.3203C37.2345 65.1224 37.9458 63.7373 38.7319 62.165C45.6948 45.1322 53.1631 32.3856 61.1367 23.9253C61.9229 23.1017 62.4844 22.6899 62.8213 22.6899C63.1582 22.6899 63.3454 22.9333 63.3828 23.4199C63.4202 23.9066 63.3454 24.5055 63.1582 25.2168C62.9336 26.1152 62.6528 27.257 62.3159 28.6421C61.3426 32.3481 60.257 36.8965 59.0591 42.2871C57.8612 47.6403 57.0002 52.7502 56.4761 57.6167C55.9894 62.4832 56.3263 66.0021 57.4868 68.1733C59.0591 70.5692 61.848 71.6922 65.8535 71.5425C66.1156 71.5425 66.3215 71.505 66.4712 71.4302C66.6209 71.3179 66.6958 71.1868 66.6958 71.0371C66.6958 70.9248 66.6396 70.8499 66.5273 70.8125C66.4525 70.7376 66.3589 70.7002 66.2466 70.7002L66.022 70.5879C65.4979 70.4007 65.0299 70.2135 64.6182 70.0264C64.5433 69.9889 64.4871 69.9515 64.4497 69.9141C63.1021 69.1279 62.3721 67.2749 62.2598 64.355C62.1849 61.4351 62.4657 58.1221 63.1021 54.416C63.7759 50.71 64.5059 47.2472 65.292 44.0278C66.1156 40.8084 66.7332 38.5062 67.145 37.1211C69.1291 30.0833 70.0275 25.3478 69.8403 22.9146C69.6906 20.8182 68.6611 19.1149 66.752 17.8047C66.1156 17.3929 65.3669 17.0934 64.5059 16.9062C63.6823 16.6442 62.3908 17.3742 60.6313 19.0962C56.4761 23.0643 51.4598 29.9149 45.5825 39.6479C44.6841 41.1079 43.4674 43.4476 41.9326 46.667C40.4352 49.8864 39.1437 53.0496 38.0581 56.1567C37.9832 56.4562 37.8896 56.6621 37.7773 56.7744L37.5527 56.999C37.5153 56.7744 37.9271 55.1273 38.7881 52.0576C39.6491 48.9505 40.7347 45.2632 42.0449 40.9956C43.3551 36.728 44.6279 32.7225 45.8633 28.979L47.3232 24.8237C49.2699 19.77 50.7111 14.6414 51.647 9.43799C51.7967 8.46468 51.8529 7.49137 51.8154 6.51807C51.8154 5.54476 51.6283 4.73991 51.2539 4.10352C50.9919 3.7666 50.5614 3.48584 49.9624 3.26123C49.3634 2.99919 48.7645 2.79329 48.1655 2.64355C47.5666 2.45638 47.1548 2.32536 46.9302 2.25049C46.2563 2.06331 45.3766 2.4751 44.291 3.48584C39.2747 8.0529 34.4456 13.9115 29.8037 21.0615C25.1618 28.2116 20.9129 35.605 17.0571 43.2417C13.2388 50.841 10.0007 57.6167 7.34277 63.5688C7.19303 63.9432 7.04329 64.2427 6.89355 64.4673C6.78125 64.6919 6.70638 64.8042 6.66895 64.8042C6.66895 64.7293 6.79997 64.1678 7.06201 63.1196C7.32406 62.0715 7.66097 60.7987 8.07275 59.3013C8.52197 57.7664 8.97119 56.2503 9.42041 54.7529C11.1424 49.3623 13.4447 42.9609 16.3271 35.5488ZM76.1855 58.9082C76.7845 58.9082 77.5145 58.5713 78.3755 57.8975C79.3862 57.1488 81.4077 55.2583 84.4399 52.2261C85.563 51.103 86.4989 50.1297 87.2476 49.3062L87.1914 50.4292C87.1914 50.9533 87.285 51.571 87.4722 52.2822C87.6593 52.9561 87.9401 53.5737 88.3145 54.1353C88.6888 54.6593 89.2129 55.2021 89.8867 55.7637C90.598 56.2878 91.2344 56.6808 91.7959 56.9429C92.5446 57.2049 93.2933 57.3359 94.042 57.3359C95.2025 57.3359 96.5876 56.9242 98.1973 56.1006C99.807 55.277 101.548 53.9855 103.419 52.2261C105.329 50.4292 107.032 48.7072 108.529 47.0601C109.577 45.8996 110.457 45.0011 111.168 44.3647C111.655 43.8407 111.898 43.4289 111.898 43.1294C111.898 42.8674 111.786 42.7363 111.562 42.7363C111.299 42.7363 110.888 42.9235 110.326 43.2979L110.045 43.5786C106.901 46.7231 103.569 49.6243 100.05 52.2822C97.4299 54.2663 95.5207 55.2583 94.3228 55.2583C93.6489 55.2583 93.312 54.7716 93.312 53.7983C93.312 53.3491 93.3682 52.825 93.4805 52.2261C94.0046 50.2795 94.8843 48.127 96.1196 45.7686C96.3817 45.207 96.5127 44.814 96.5127 44.5894C96.5127 44.4022 95.7078 43.7845 94.0981 42.7363C92.5633 41.8005 91.721 41.3325 91.5713 41.3325C91.2718 41.3325 91.0285 41.4074 90.8413 41.5571C90.6541 41.7069 90.4482 41.9689 90.2236 42.3433C90.0365 42.5679 89.7557 42.9048 89.3813 43.354C89.0444 43.7658 88.6701 44.1776 88.2583 44.5894C87.8465 44.9637 87.3037 45.5252 86.6299 46.2739C85.9561 47.0226 85.2822 47.7526 84.6084 48.4639C83.972 49.1751 83.2607 49.9425 82.4746 50.7661C81.6885 51.5897 80.9772 52.3009 80.3408 52.8999C79.7044 53.4989 79.0306 54.0978 78.3193 54.6968C77.6455 55.2583 77.0653 55.7075 76.5786 56.0444C76.092 56.3813 75.7925 56.5498 75.6802 56.5498V56.4375C75.6802 56.3252 75.7176 56.0819 75.7925 55.7075C75.9048 55.2957 76.0545 54.7904 76.2417 54.1914C76.4663 53.555 76.7096 52.9748 76.9717 52.4507C78.3942 49.4933 80.1536 46.8729 82.25 44.5894C84.3838 42.2684 86.555 40.6213 88.7637 39.6479C89.1755 39.4982 89.4562 39.4046 89.606 39.3672C89.7931 39.2923 89.9429 39.2549 90.0552 39.2549C90.2424 39.2549 90.4482 39.311 90.6729 39.4233C90.9349 39.5356 91.1408 39.5918 91.2905 39.5918C91.4403 39.5918 91.6274 39.5356 91.8521 39.4233C92.2638 39.2736 92.4697 39.049 92.4697 38.7495C92.4697 38.5249 92.3387 38.2816 92.0767 38.0195C91.8521 37.7201 91.3092 37.327 90.4482 36.8403C89.5872 36.3537 88.7075 35.9045 87.8091 35.4927C86.9481 35.0809 86.3866 34.8563 86.1245 34.8188C85.8999 34.744 85.6566 34.7065 85.3945 34.7065C84.6084 34.7065 83.71 34.875 82.6992 35.2119C79.8167 36.4847 77.1401 38.6934 74.6694 41.8379C72.1987 44.945 70.589 48.127 69.8403 51.3838L69.7842 51.9453C69.7842 52.6566 70.0088 53.5363 70.458 54.5845C70.9072 55.6326 71.6372 56.6247 72.6479 57.5605C73.6213 58.459 74.7443 58.9082 76.0171 58.9082H76.1855ZM114.369 78.2808C115.342 78.0187 116.129 77.6444 116.728 77.1577C117.326 76.6336 117.925 75.9972 118.524 75.2485L119.142 74.5186C121.912 71.374 126.76 63.9993 133.686 52.3945C136.868 47.0039 138.458 44.1214 138.458 43.7471V43.5786C138.458 43.4663 138.327 43.354 138.065 43.2417C137.803 43.1294 137.597 43.0732 137.448 43.0732C137.373 43.0732 137.279 43.092 137.167 43.1294C137.055 43.1668 136.924 43.354 136.774 43.6909C135.239 46.0868 133.592 48.7446 131.833 51.6646C128.987 56.4562 126.086 61.042 123.129 65.4219C120.209 69.8018 117.607 72.8714 115.324 74.6309L115.155 74.687V74.5747L115.436 73.3394C115.623 72.6655 115.848 71.9355 116.11 71.1494C116.484 70.0264 117.57 67.2749 119.367 62.895C121.688 57.2798 123.054 53.5737 123.466 51.7769C123.616 50.9533 123.69 50.2046 123.69 49.5308V49.1377C123.69 48.2767 123.541 47.5841 123.241 47.0601C122.605 46.3114 121.388 45.6562 119.591 45.0947C117.607 44.4583 115.586 44.0653 113.527 43.9155C112.928 43.8781 112.628 43.4102 112.628 42.5117C112.628 42.2122 112.685 41.7443 112.797 41.1079C112.909 40.4715 113.34 39.2362 114.088 37.4019C114.163 37.327 114.219 37.2334 114.257 37.1211C114.669 36.2601 114.875 35.5675 114.875 35.0435C114.875 34.5568 114.5 34.2199 113.751 34.0327L112.067 33.6958L109.989 33.415C109.652 33.3402 109.334 33.3027 109.035 33.3027C107.949 33.3776 106.92 34.5194 105.946 36.728C105.01 38.5998 104.542 40.1908 104.542 41.501C104.542 43.5599 105.684 44.945 107.968 45.6562C108.417 45.7686 110.457 45.9557 114.088 46.2178C116.147 46.4049 117.177 47.1536 117.177 48.4639C117.177 48.5762 117.121 49.0441 117.008 49.8677C116.896 50.6912 116.334 52.0951 115.324 54.0791L114.481 55.9883C113.021 59.4323 111.898 62.1838 111.112 64.2427C110.326 66.2642 109.708 68.1546 109.259 69.9141C108.548 72.3099 108.192 74.1255 108.192 75.3608C108.192 76.0347 108.305 76.5026 108.529 76.7646C108.716 77.0267 109.222 77.27 110.045 77.4946C111.73 78.0187 113.078 78.2808 114.088 78.2808H114.369ZM146.938 32.4604C147.462 32.4604 147.724 32.3107 147.724 32.0112C147.724 31.8989 147.686 31.7866 147.611 31.6743C147.574 31.562 147.555 31.4497 147.555 31.3374C147.555 30.8507 147.855 30.0459 148.454 28.9229L149.352 27.0698C149.577 26.6206 149.689 26.3211 149.689 26.1714C149.577 25.9093 149.202 25.5911 148.566 25.2168C147.967 24.8424 147.274 24.4868 146.488 24.1499C145.702 23.813 144.991 23.6071 144.354 23.5322C144.055 23.4574 143.83 23.4199 143.681 23.4199C143.531 23.4199 143.419 23.4386 143.344 23.4761C142.632 23.8879 142.277 25.0858 142.277 27.0698L142.389 28.979C142.539 30.1395 143.306 31.0941 144.691 31.8428C145.552 32.2546 146.301 32.4604 146.938 32.4604ZM141.659 61.0981C143.905 61.0607 146.526 59.3013 149.521 55.8198C150.868 54.2476 152.197 52.5256 153.507 50.6538C154.855 48.7821 155.941 47.1536 156.764 45.7686C157.625 44.346 158.056 43.5037 158.056 43.2417C158.056 43.1294 157.943 43.0171 157.719 42.9048C157.532 42.755 157.307 42.6427 157.045 42.5679C156.933 42.5679 156.802 42.624 156.652 42.7363C156.54 42.8486 155.697 44.084 154.125 46.4424C152.141 49.6243 150.232 52.2261 148.397 54.2476C146.975 55.8198 145.796 56.9054 144.86 57.5044C143.213 58.59 141.959 59.1328 141.098 59.1328C140.124 59.1328 139.638 58.4403 139.638 57.0552C139.638 56.4562 139.731 55.7075 139.918 54.8091C140.929 50.4666 142.277 46.2552 143.961 42.1748C144.411 40.9395 144.635 40.1346 144.635 39.7603C144.635 39.5731 144.429 39.3485 144.018 39.0864C143.606 38.8244 142.651 38.4126 141.154 37.8511C140.218 37.5142 139.638 37.3457 139.413 37.3457C139.151 37.3457 138.926 37.4206 138.739 37.5703C137.429 38.6559 136.362 40.3405 135.539 42.624C134.678 44.8701 134.079 46.8354 133.742 48.52C133.292 50.1672 133.068 51.7394 133.068 53.2368C133.068 54.6219 133.461 55.9321 134.247 57.1675C134.958 58.0659 136.1 58.9456 137.672 59.8066C139.282 60.6676 140.611 61.0981 141.659 61.0981ZM208.817 83.7275C214.732 83.7275 220.684 82.6981 226.674 80.6392C232.663 78.6177 237.96 75.548 242.565 71.4302C247.207 67.2749 250.333 62.3522 251.942 56.6621C252.242 55.4642 252.392 54.1727 252.392 52.7876C252.392 49.6431 251.793 46.7606 250.595 44.1401C248.386 39.1987 244.811 35.3991 239.87 32.7412C236.313 30.7946 232.214 29.8213 227.572 29.8213C225.775 29.8213 223.904 29.971 221.957 30.2705C225.401 28.3613 228.677 26.1714 231.784 23.7007C234.891 21.1925 236.725 18.3475 237.287 15.1655C237.361 14.7912 237.399 14.3981 237.399 13.9863C237.399 11.1038 235.565 7.92188 231.896 4.44043C228.527 1.52051 224.503 0.0605469 219.823 0.0605469C219.786 0.0605469 218.55 0.0792643 216.117 0.116699C213.684 0.154134 209.94 1.31462 204.887 3.59814C199.87 5.84424 195.247 8.78288 191.017 12.4141C186.787 16.0078 183.474 19.8636 181.078 23.9814C179.132 27.3132 178.158 30.5326 178.158 33.6396C178.158 34.3509 178.214 35.0622 178.327 35.7734C178.626 37.3083 179.319 38.5623 180.404 39.5356C181.452 40.509 182.688 41.2015 184.11 41.6133L184.447 41.6694C184.859 41.8192 185.196 41.894 185.458 41.894C185.608 41.894 185.683 41.8379 185.683 41.7256C185.683 41.6133 185.458 41.3325 185.009 40.8833C184.11 39.8726 183.661 38.5998 183.661 37.0649C183.661 36.9526 183.68 36.466 183.717 35.605C183.755 34.7065 184.073 33.4525 184.672 31.8428C185.308 30.1956 185.926 28.8667 186.525 27.856C189.445 22.8022 193.769 18.1978 199.496 14.0425C205.224 9.88721 210.745 7.19189 216.061 5.95654C219.468 5.24528 222.35 4.88965 224.708 4.88965C226.618 4.88965 228.171 5.13298 229.369 5.61963C231.353 6.4432 232.345 7.7347 232.345 9.49414C232.345 10.0557 232.083 11.16 231.559 12.8071C231.072 14.4543 228.826 16.9998 224.821 20.4438C222.388 22.6151 219.823 24.5804 217.128 26.3398C214.47 28.0618 212.168 29.3346 210.221 30.1582C210.895 28.5111 212.598 25.1419 215.331 20.0508L216.398 17.9731C216.81 17.2244 217.016 16.7004 217.016 16.4009C217.016 16.1763 216.941 16.0078 216.791 15.8955C216.754 15.8955 216.735 15.8768 216.735 15.8394C216.361 15.5024 215.631 15.1094 214.545 14.6602C213.871 14.3981 213.216 14.2671 212.58 14.2671C212.505 14.2671 212.261 14.2858 211.85 14.3232C211.438 14.3232 211.007 14.6414 210.558 15.2778C209.136 17.7111 208.2 19.4144 207.75 20.3877L203.932 28.5298C202.884 30.8507 202.36 32.0487 202.36 32.1235C202.173 32.5353 201.967 32.891 201.742 33.1904C201.555 33.4525 200.544 34.0514 198.71 34.9873C197.812 35.4365 197.138 35.8296 196.688 36.1665C196.426 36.3537 196.295 36.5596 196.295 36.7842C196.295 37.0088 196.464 37.327 196.801 37.7388C197.287 38.5623 197.812 38.9741 198.373 38.9741C198.485 38.9741 198.616 38.9554 198.766 38.918C198.916 38.8431 199.066 38.8057 199.215 38.8057H199.384C199.384 38.8805 199.309 39.1051 199.159 39.4795C199.009 39.8538 198.822 40.3218 198.598 40.8833C198.41 41.4074 198.092 42.2497 197.643 43.4102C197.231 44.5706 196.801 45.7873 196.352 47.0601C195.94 48.3328 195.491 49.6243 195.004 50.9346C189.201 51.6458 184.822 53.5737 181.864 56.7183C179.581 59.2264 178.439 61.9966 178.439 65.0288C178.439 65.8149 178.682 67.4434 179.169 69.9141C179.618 72.3473 182.557 75.1924 187.985 78.4492C194.311 81.9681 201.256 83.7275 208.817 83.7275ZM203.483 79.0107C197.718 79.0107 193.057 78.1123 189.501 76.3154C187.816 75.4544 186.544 74.3501 185.683 73.0024C184.41 70.981 183.773 68.7723 183.773 66.3765C183.773 66.1519 183.811 65.3096 183.886 63.8496C183.998 62.3896 184.915 60.5741 186.637 58.4028C188.359 56.2316 190.849 54.7904 194.105 54.0791C192.047 60.2559 191.017 64.8416 191.017 67.8364C191.017 68.6974 191.616 69.6333 192.814 70.644C194.424 72.1414 195.715 72.8901 196.688 72.8901C197.325 72.8901 197.718 72.7778 197.868 72.5532L197.924 72.4409C197.924 72.2537 197.681 72.0291 197.194 71.7671C196.707 71.4676 196.464 70.7938 196.464 69.7456C196.464 68.2108 196.988 65.4967 198.036 61.6035C198.822 58.721 199.702 55.9321 200.675 53.2368C201.536 53.1245 202.397 53.0684 203.258 53.0684C205.579 53.0684 208.125 53.5176 210.895 54.416C213.665 55.277 216.061 56.868 218.083 59.189C218.195 59.3387 218.27 59.4697 218.307 59.582C218.345 59.6569 218.382 59.7318 218.419 59.8066C218.494 59.8441 218.55 59.8628 218.588 59.8628C218.663 59.8628 218.719 59.8066 218.756 59.6943C218.756 59.3949 218.719 59.1141 218.644 58.8521C217.895 56.9054 216.529 55.3706 214.545 54.2476C211.288 52.3758 206.964 51.234 201.574 50.8223C201.574 50.6725 201.78 50.0361 202.191 48.9131C204.101 43.7096 205.804 39.4608 207.301 36.1665L209.435 35.605C211.606 34.9686 213.59 34.5007 215.387 34.2012C218.045 33.752 220.909 33.5273 223.979 33.5273C233.038 33.5273 239.795 35.8483 244.25 40.4902C245.148 41.501 245.784 42.5679 246.159 43.6909C246.57 44.7765 246.776 46.3675 246.776 48.4639C246.776 51.234 245.99 54.1353 244.418 57.1675C242.621 60.8361 240.188 64.0929 237.118 66.938C232.439 71.243 226.562 74.4624 219.486 76.5962C214.171 78.2059 208.836 79.0107 203.483 79.0107ZM262.611 58.9082C263.21 58.9082 263.94 58.5713 264.801 57.8975C265.812 57.1488 267.833 55.2583 270.866 52.2261C271.989 51.103 272.925 50.1297 273.673 49.3062L273.617 50.4292C273.617 50.9533 273.711 51.571 273.898 52.2822C274.085 52.9561 274.366 53.5737 274.74 54.1353C275.115 54.6593 275.639 55.2021 276.312 55.7637C277.024 56.2878 277.66 56.6808 278.222 56.9429C278.97 57.2049 279.719 57.3359 280.468 57.3359C281.628 57.3359 283.013 56.9242 284.623 56.1006C286.233 55.277 287.973 53.9855 289.845 52.2261C291.754 50.4292 293.458 48.7072 294.955 47.0601C296.003 45.8996 296.883 45.0011 297.594 44.3647C298.081 43.8407 298.324 43.4289 298.324 43.1294C298.324 42.8674 298.212 42.7363 297.987 42.7363C297.725 42.7363 297.313 42.9235 296.752 43.2979L296.471 43.5786C293.327 46.7231 289.995 49.6243 286.476 52.2822C283.856 54.2663 281.946 55.2583 280.749 55.2583C280.075 55.2583 279.738 54.7716 279.738 53.7983C279.738 53.3491 279.794 52.825 279.906 52.2261C280.43 50.2795 281.31 48.127 282.545 45.7686C282.807 45.207 282.938 44.814 282.938 44.5894C282.938 44.4022 282.134 43.7845 280.524 42.7363C278.989 41.8005 278.147 41.3325 277.997 41.3325C277.698 41.3325 277.454 41.4074 277.267 41.5571C277.08 41.7069 276.874 41.9689 276.649 42.3433C276.462 42.5679 276.181 42.9048 275.807 43.354C275.47 43.7658 275.096 44.1776 274.684 44.5894C274.272 44.9637 273.729 45.5252 273.056 46.2739C272.382 47.0226 271.708 47.7526 271.034 48.4639C270.398 49.1751 269.687 49.9425 268.9 50.7661C268.114 51.5897 267.403 52.3009 266.767 52.8999C266.13 53.4989 265.456 54.0978 264.745 54.6968C264.071 55.2583 263.491 55.7075 263.004 56.0444C262.518 56.3813 262.218 56.5498 262.106 56.5498V56.4375C262.106 56.3252 262.143 56.0819 262.218 55.7075C262.331 55.2957 262.48 54.7904 262.667 54.1914C262.892 53.555 263.135 52.9748 263.397 52.4507C264.82 49.4933 266.579 46.8729 268.676 44.5894C270.81 42.2684 272.981 40.6213 275.189 39.6479C275.601 39.4982 275.882 39.4046 276.032 39.3672C276.219 39.2923 276.369 39.2549 276.481 39.2549C276.668 39.2549 276.874 39.311 277.099 39.4233C277.361 39.5356 277.567 39.5918 277.716 39.5918C277.866 39.5918 278.053 39.5356 278.278 39.4233C278.69 39.2736 278.896 39.049 278.896 38.7495C278.896 38.5249 278.764 38.2816 278.502 38.0195C278.278 37.7201 277.735 37.327 276.874 36.8403C276.013 36.3537 275.133 35.9045 274.235 35.4927C273.374 35.0809 272.812 34.8563 272.55 34.8188C272.326 34.744 272.082 34.7065 271.82 34.7065C271.034 34.7065 270.136 34.875 269.125 35.2119C266.243 36.4847 263.566 38.6934 261.095 41.8379C258.625 44.945 257.015 48.127 256.266 51.3838L256.21 51.9453C256.21 52.6566 256.435 53.5363 256.884 54.5845C257.333 55.6326 258.063 56.6247 259.074 57.5605C260.047 58.459 261.17 58.9082 262.443 58.9082H262.611ZM290.014 98.7202C294.618 98.6828 298.773 97.0356 302.479 93.7788C306.186 90.5594 309.405 86.5539 312.138 81.7622C314.908 77.008 317.135 72.3473 318.82 67.7803C320.504 63.1758 321.609 59.4884 322.133 56.7183L322.582 54.9775L329.938 50.4292C335.478 47.0975 338.904 45.0947 340.214 44.4209C340.813 44.1214 341.206 43.9717 341.393 43.9717C341.618 43.9717 341.73 43.9342 341.73 43.8594C341.73 43.7471 341.618 43.5973 341.393 43.4102C341.168 43.223 340.869 43.1294 340.495 43.1294C340.12 43.1294 339.69 43.2417 339.203 43.4663C337.593 44.215 333.644 46.3862 327.355 49.98C326.457 50.5041 325.652 50.9533 324.94 51.3276C324.267 51.702 323.855 51.9453 323.705 52.0576C323.555 52.1325 323.387 52.2074 323.2 52.2822L323.593 48.4639C323.743 46.8542 323.817 45.3942 323.817 44.084C323.817 41.0892 323.424 38.8431 322.638 37.3457C322.339 36.8965 321.253 36.6157 319.381 36.5034C318.558 36.466 317.865 36.3911 317.304 36.2788C316.742 36.1291 316.424 36.0542 316.349 36.0542C316.312 36.0542 316.237 36.0729 316.125 36.1104C316.05 36.1478 315.919 36.2227 315.731 36.335C315.544 36.4098 315.301 36.6344 315.001 37.0088C314.702 37.3457 314.309 37.9072 313.822 38.6934C313.373 39.4795 312.774 40.5838 312.025 42.0063C309.33 47.0226 307.252 50.6351 305.792 52.8438C304.37 55.015 303.135 56.4749 302.086 57.2236C301.038 57.9349 300.215 58.2905 299.616 58.2905C299.429 58.2905 299.129 58.1969 298.717 58.0098C298.343 57.7852 298.156 56.9429 298.156 55.4829C298.156 54.9963 298.193 54.3973 298.268 53.686C298.53 51.5148 299.167 49.1751 300.177 46.667C300.889 44.945 301.899 42.8486 303.209 40.3779C303.696 39.4795 304.108 38.6746 304.445 37.9634C304.782 37.2147 304.95 36.7655 304.95 36.6157C304.95 36.0916 304.37 35.6237 303.209 35.2119C302.236 34.8001 301.375 34.5942 300.626 34.5942C299.953 34.5942 299.372 34.7627 298.886 35.0996C297.8 35.998 296.583 37.9072 295.236 40.8271C293.214 45.1696 292.204 48.988 292.204 52.2822C292.204 56.138 293.589 58.59 296.359 59.6382C297.744 60.1623 299.11 60.4243 300.458 60.4243C300.982 60.4243 301.394 60.3869 301.693 60.312C302.255 60.2371 302.985 59.9189 303.883 59.3574C305.119 58.6087 306.223 57.6167 307.196 56.3813C307.945 55.4455 308.881 54.0791 310.004 52.2822C311.277 50.1859 313.298 46.6483 316.068 41.6694C316.667 40.5464 317.023 39.9849 317.135 39.9849C317.285 39.9849 317.435 40.6961 317.584 42.1187C317.622 42.6427 317.641 43.2417 317.641 43.9155C317.641 45.076 317.566 46.7231 317.416 48.8569C317.266 50.9533 317.004 52.8438 316.63 54.5283L316.181 56.5498C313.036 58.6462 309.985 60.8548 307.028 63.1758C298.193 70.0638 291.792 76.6898 287.824 83.0537C285.054 87.3213 283.668 90.7279 283.668 93.2734C283.668 94.359 283.781 95.1826 284.005 95.7441C284.118 96.1185 284.342 96.5116 284.679 96.9233C285.69 98.1213 287.468 98.7202 290.014 98.7202ZM288.722 97.0918C287.412 97.0918 286.757 96.0436 286.757 93.9473V93.6104C286.757 91.3643 287.842 88.5192 290.014 85.0752C293.757 78.9733 299.372 72.6842 306.859 66.208C308.057 65.1973 309.499 64.0368 311.183 62.7266C313.317 61.1169 314.721 60.1061 315.395 59.6943C315.32 59.9938 315.17 60.4618 314.945 61.0981C314.721 61.6971 314.496 62.3896 314.271 63.1758C311.015 72.9463 306.972 81.0135 302.143 87.3774C298.848 91.4953 295.404 94.4339 291.811 96.1934C290.5 96.7923 289.471 97.0918 288.722 97.0918ZM343.471 78.2808C344.444 78.0187 345.23 77.6444 345.829 77.1577C346.428 76.6336 347.027 75.9972 347.626 75.2485L348.244 74.5186C351.014 71.374 355.862 63.9993 362.787 52.3945C365.969 47.0039 367.56 44.1214 367.56 43.7471V43.5786C367.56 43.4663 367.429 43.354 367.167 43.2417C366.905 43.1294 366.699 43.0732 366.549 43.0732C366.474 43.0732 366.381 43.092 366.269 43.1294C366.156 43.1668 366.025 43.354 365.875 43.6909C364.341 46.0868 362.694 48.7446 360.934 51.6646C358.089 56.4562 355.188 61.042 352.23 65.4219C349.311 69.8018 346.709 72.8714 344.425 74.6309L344.257 74.687V74.5747L344.538 73.3394C344.725 72.6655 344.949 71.9355 345.211 71.1494C345.586 70.0264 346.671 67.2749 348.468 62.895C350.789 57.2798 352.156 53.5737 352.567 51.7769C352.717 50.9533 352.792 50.2046 352.792 49.5308V49.1377C352.792 48.2767 352.642 47.5841 352.343 47.0601C351.706 46.3114 350.49 45.6562 348.693 45.0947C346.709 44.4583 344.687 44.0653 342.628 43.9155C342.029 43.8781 341.73 43.4102 341.73 42.5117C341.73 42.2122 341.786 41.7443 341.898 41.1079C342.011 40.4715 342.441 39.2362 343.19 37.4019C343.265 37.327 343.321 37.2334 343.358 37.1211C343.77 36.2601 343.976 35.5675 343.976 35.0435C343.976 34.5568 343.602 34.2199 342.853 34.0327L341.168 33.6958L339.091 33.415C338.754 33.3402 338.436 33.3027 338.136 33.3027C337.051 33.3776 336.021 34.5194 335.048 36.728C334.112 38.5998 333.644 40.1908 333.644 41.501C333.644 43.5599 334.786 44.945 337.069 45.6562C337.519 45.7686 339.559 45.9557 343.19 46.2178C345.249 46.4049 346.278 47.1536 346.278 48.4639C346.278 48.5762 346.222 49.0441 346.11 49.8677C345.998 50.6912 345.436 52.0951 344.425 54.0791L343.583 55.9883C342.123 59.4323 341 62.1838 340.214 64.2427C339.428 66.2642 338.81 68.1546 338.361 69.9141C337.65 72.3099 337.294 74.1255 337.294 75.3608C337.294 76.0347 337.406 76.5026 337.631 76.7646C337.818 77.0267 338.323 77.27 339.147 77.4946C340.832 78.0187 342.179 78.2808 343.19 78.2808H343.471ZM366.493 58.9082C367.092 58.9082 367.822 58.5713 368.683 57.8975C369.694 57.1488 371.715 55.2583 374.748 52.2261C375.871 51.103 376.806 50.1297 377.555 49.3062L377.499 50.4292C377.499 50.9533 377.593 51.571 377.78 52.2822C377.967 52.9561 378.248 53.5737 378.622 54.1353C378.996 54.6593 379.521 55.2021 380.194 55.7637C380.906 56.2878 381.542 56.6808 382.104 56.9429C382.852 57.2049 383.601 57.3359 384.35 57.3359C385.51 57.3359 386.895 56.9242 388.505 56.1006C390.115 55.277 391.855 53.9855 393.727 52.2261C395.636 50.4292 397.34 48.7072 398.837 47.0601C399.885 45.8996 400.765 45.0011 401.476 44.3647C401.963 43.8407 402.206 43.4289 402.206 43.1294C402.206 42.8674 402.094 42.7363 401.869 42.7363C401.607 42.7363 401.195 42.9235 400.634 43.2979L400.353 43.5786C397.208 46.7231 393.877 49.6243 390.358 52.2822C387.737 54.2663 385.828 55.2583 384.63 55.2583C383.957 55.2583 383.62 54.7716 383.62 53.7983C383.62 53.3491 383.676 52.825 383.788 52.2261C384.312 50.2795 385.192 48.127 386.427 45.7686C386.689 45.207 386.82 44.814 386.82 44.5894C386.82 44.4022 386.015 43.7845 384.406 42.7363C382.871 41.8005 382.029 41.3325 381.879 41.3325C381.579 41.3325 381.336 41.4074 381.149 41.5571C380.962 41.7069 380.756 41.9689 380.531 42.3433C380.344 42.5679 380.063 42.9048 379.689 43.354C379.352 43.7658 378.978 44.1776 378.566 44.5894C378.154 44.9637 377.611 45.5252 376.938 46.2739C376.264 47.0226 375.59 47.7526 374.916 48.4639C374.28 49.1751 373.568 49.9425 372.782 50.7661C371.996 51.5897 371.285 52.3009 370.648 52.8999C370.012 53.4989 369.338 54.0978 368.627 54.6968C367.953 55.2583 367.373 55.7075 366.886 56.0444C366.4 56.3813 366.1 56.5498 365.988 56.5498V56.4375C365.988 56.3252 366.025 56.0819 366.1 55.7075C366.212 55.2957 366.362 54.7904 366.549 54.1914C366.774 53.555 367.017 52.9748 367.279 52.4507C368.702 49.4933 370.461 46.8729 372.558 44.5894C374.691 42.2684 376.863 40.6213 379.071 39.6479C379.483 39.4982 379.764 39.4046 379.914 39.3672C380.101 39.2923 380.25 39.2549 380.363 39.2549C380.55 39.2549 380.756 39.311 380.98 39.4233C381.243 39.5356 381.448 39.5918 381.598 39.5918C381.748 39.5918 381.935 39.5356 382.16 39.4233C382.571 39.2736 382.777 39.049 382.777 38.7495C382.777 38.5249 382.646 38.2816 382.384 38.0195C382.16 37.7201 381.617 37.327 380.756 36.8403C379.895 36.3537 379.015 35.9045 378.117 35.4927C377.256 35.0809 376.694 34.8563 376.432 34.8188C376.208 34.744 375.964 34.7065 375.702 34.7065C374.916 34.7065 374.018 34.875 373.007 35.2119C370.124 36.4847 367.448 38.6934 364.977 41.8379C362.506 44.945 360.897 48.127 360.148 51.3838L360.092 51.9453C360.092 52.6566 360.316 53.5363 360.766 54.5845C361.215 55.6326 361.945 56.6247 362.956 57.5605C363.929 58.459 365.052 58.9082 366.325 58.9082H366.493ZM399.735 58.9082C400.222 58.9082 400.596 58.6087 400.858 58.0098C400.933 57.9349 401.738 56.5685 403.273 53.9106C404.995 51.0656 407.634 47.6029 411.19 43.5225C412.164 42.362 413.062 41.37 413.886 40.5464C414.709 39.7228 415.196 39.311 415.346 39.311L415.402 39.4233L415.29 40.6025C414.953 42.8486 414.784 44.7952 414.784 46.4424C414.784 47.7152 414.878 48.8008 415.065 49.6992C415.14 50.2233 415.233 50.6351 415.346 50.9346C415.495 51.1966 415.72 51.4961 416.02 51.833C416.544 52.432 417.199 52.9186 417.985 53.293C418.808 53.6299 419.52 53.7983 420.119 53.7983C420.53 53.7983 420.867 53.7235 421.129 53.5737C421.391 53.424 422.159 52.825 423.432 51.7769C426.127 49.6431 428.467 47.1162 430.451 44.1963C430.6 43.9342 430.75 43.8032 430.9 43.8032C431.087 43.8032 431.237 43.9342 431.349 44.1963C431.499 44.4209 431.592 44.6642 431.63 44.9263C431.63 49.8302 432.659 53.4989 434.718 55.9321C436.515 57.729 438.48 58.6274 440.614 58.6274C441.999 58.6274 443.235 58.2905 444.32 57.6167C447.652 55.4455 450.834 51.5897 453.866 46.0493C454.315 45.2632 454.652 44.7204 454.877 44.4209C454.989 44.2337 455.045 44.0653 455.045 43.9155C455.045 43.8032 454.971 43.6909 454.821 43.5786C454.708 43.4663 454.503 43.4102 454.203 43.4102C453.679 43.4102 453.267 43.5599 452.968 43.8594C452.706 44.1214 452.219 44.8888 451.508 46.1616C450.535 47.8462 449.355 49.6805 447.97 51.6646C446.623 53.6486 445.256 55.0337 443.871 55.8198C443.497 56.007 443.141 56.1006 442.804 56.1006C441.868 56.1006 441.045 55.3893 440.333 53.9668C439.772 52.8438 439.416 51.2902 439.267 49.3062C439.192 48.4077 439.154 47.266 439.154 45.8809C439.154 44.1589 439.21 42.0438 439.323 39.5356C439.136 38.9741 438.63 38.5249 437.807 38.188C436.983 37.8136 436.103 37.4954 435.167 37.2334C433.97 36.8965 433.277 36.728 433.09 36.728C432.491 36.728 431.854 37.0837 431.181 37.7949C430.544 38.4688 429.814 39.5169 428.991 40.9395C427.718 43.1855 425.94 45.4691 423.656 47.79C422.496 48.988 421.728 49.5869 421.354 49.5869C421.167 49.5869 421.073 49.4746 421.073 49.25C421.073 48.8757 421.317 47.528 421.803 45.207C422.402 42.6989 422.702 40.9395 422.702 39.9287C422.702 39.2923 422.608 38.7682 422.421 38.3564C422.271 37.9447 421.953 37.5329 421.466 37.1211C420.643 36.4473 419.239 35.9793 417.255 35.7173C416.132 35.5675 415.477 35.4927 415.29 35.4927C414.503 35.4927 413.474 36.1665 412.201 37.5142C410.928 38.8618 408.982 41.37 406.361 45.0386C405.8 45.8247 405.294 46.5173 404.845 47.1162C404.433 47.6777 404.19 47.9959 404.115 48.0708C404.078 48.1457 404.04 48.1831 404.003 48.1831C404.003 47.9959 404.752 46.4049 406.249 43.4102L408.495 38.8057L408.551 38.5811C408.738 38.2816 408.832 38.0008 408.832 37.7388V37.458C408.832 37.2708 408.495 37.0088 407.821 36.6719C407.147 36.2975 406.361 35.9419 405.463 35.605C404.228 35.1558 403.404 34.9312 402.992 34.9312C402.468 34.9312 402.056 35.0622 401.757 35.3242C401.27 35.8109 400.353 37.8885 399.005 41.5571C398.182 43.7658 397.471 45.9183 396.872 48.0146C395.823 52.0951 395.299 55.0898 395.299 56.999C395.299 57.5231 395.561 57.8787 396.085 58.0659C396.16 58.1408 396.928 58.328 398.388 58.6274C398.725 58.7023 399.005 58.7772 399.23 58.8521C399.417 58.8895 399.586 58.9082 399.735 58.9082ZM456.281 59.0767L456.898 59.0205C458.695 58.5713 460.38 57.2049 461.952 54.9214L462.121 54.6968C463.73 52.6004 464.535 50.6538 464.535 48.8569C464.535 48.3328 464.479 47.79 464.367 47.2285C465.602 48.2393 467.586 48.7821 470.319 48.8569C473.126 48.8569 475.972 47.5841 478.854 45.0386C479.116 44.7765 479.247 44.5332 479.247 44.3086C479.247 43.9717 479.079 43.7284 478.742 43.5786L478.517 43.5225C478.33 43.5225 478.124 43.616 477.899 43.8032C475.616 45.6001 473.351 46.4985 471.105 46.4985C467.886 46.4985 464.928 45.4129 462.233 43.2417C461.859 42.9422 461.653 42.6802 461.615 42.4556C461.578 42.231 460.754 41.4823 459.145 40.2095C457.535 38.9367 456.393 38.3003 455.719 38.3003C455.27 38.3003 454.783 38.5062 454.259 38.918C453.174 39.8164 452.069 41.3138 450.946 43.4102C449.823 45.4691 449.075 47.6403 448.7 49.9238C448.625 50.4854 448.588 51.0094 448.588 51.4961C448.588 53.0684 449.037 54.416 449.936 55.5391C450.834 56.5124 451.957 57.3734 453.305 58.1221C454.353 58.7585 455.345 59.0767 456.281 59.0767ZM454.765 56.1567V56.1006C454.727 55.9883 454.746 55.745 454.821 55.3706C455.158 53.8732 455.813 52.1512 456.786 50.2046C457.759 48.2205 458.808 46.4985 459.931 45.0386C460.305 44.5145 460.586 44.2524 460.773 44.2524H460.829L461.054 44.3086C461.465 44.6081 461.671 45.3381 461.671 46.4985C461.671 48.3328 460.792 50.4105 459.032 52.7314C457.872 54.3037 456.73 55.3519 455.607 55.876L454.765 56.1567ZM482.56 64.8604C482.71 64.8604 483.346 64.8229 484.469 64.748C485.592 64.6732 486.865 63.9993 488.288 62.7266C489.822 61.3415 491.451 59.6195 493.173 57.5605C494.932 55.4642 496.355 53.5737 497.44 51.8892C500.959 46.2739 502.719 42.1935 502.719 39.6479C502.719 39.5731 502.7 39.2549 502.663 38.6934C502.663 38.0944 502.457 37.458 502.045 36.7842C501.633 36.0729 501.128 35.5301 500.529 35.1558C499.967 34.7814 499.481 34.5942 499.069 34.5942C498.769 34.5942 498.62 34.6878 498.62 34.875C498.62 35.0247 498.751 35.1932 499.013 35.3804C499.499 35.7173 499.743 36.5221 499.743 37.7949C499.743 40.0785 498.788 42.9797 496.879 46.4985C493.36 52.9748 489.373 57.991 484.918 61.5474C483.721 62.4832 482.878 62.9699 482.392 63.0073C481.755 62.9699 481.437 62.165 481.437 60.5928C481.437 58.9456 481.755 56.4937 482.392 53.2368C482.916 50.6164 483.477 48.2205 484.076 46.0493C484.675 43.8407 485.106 42.4181 485.368 41.7817C486.079 40.0223 486.528 38.8057 486.715 38.1318C486.678 37.9447 486.472 37.7013 486.098 37.4019C485.349 36.9152 484.357 36.4285 483.122 35.9419C482.261 35.605 481.68 35.4365 481.381 35.4365C480.108 35.4365 478.723 37.5516 477.226 41.7817C476.552 43.5412 475.953 45.806 475.429 48.5762C474.979 50.7474 474.755 52.8812 474.755 54.9775C474.755 55.5391 474.811 56.6247 474.923 58.2344C474.998 59.8066 475.747 61.304 477.169 62.7266C478.854 64.1491 480.651 64.8604 482.56 64.8604ZM509.569 58.9082C510.168 58.9082 510.898 58.5713 511.759 57.8975C512.77 57.1488 514.792 55.2583 517.824 52.2261C518.947 51.103 519.883 50.1297 520.631 49.3062L520.575 50.4292C520.575 50.9533 520.669 51.571 520.856 52.2822C521.043 52.9561 521.324 53.5737 521.698 54.1353C522.073 54.6593 522.597 55.2021 523.271 55.7637C523.982 56.2878 524.618 56.6808 525.18 56.9429C525.928 57.2049 526.677 57.3359 527.426 57.3359C528.586 57.3359 529.971 56.9242 531.581 56.1006C533.191 55.277 534.931 53.9855 536.803 52.2261C538.712 50.4292 540.416 48.7072 541.913 47.0601C542.961 45.8996 543.841 45.0011 544.552 44.3647C545.039 43.8407 545.282 43.4289 545.282 43.1294C545.282 42.8674 545.17 42.7363 544.945 42.7363C544.683 42.7363 544.271 42.9235 543.71 43.2979L543.429 43.5786C540.285 46.7231 536.953 49.6243 533.434 52.2822C530.814 54.2663 528.904 55.2583 527.707 55.2583C527.033 55.2583 526.696 54.7716 526.696 53.7983C526.696 53.3491 526.752 52.825 526.864 52.2261C527.388 50.2795 528.268 48.127 529.503 45.7686C529.765 45.207 529.896 44.814 529.896 44.5894C529.896 44.4022 529.092 43.7845 527.482 42.7363C525.947 41.8005 525.105 41.3325 524.955 41.3325C524.656 41.3325 524.412 41.4074 524.225 41.5571C524.038 41.7069 523.832 41.9689 523.607 42.3433C523.42 42.5679 523.139 42.9048 522.765 43.354C522.428 43.7658 522.054 44.1776 521.642 44.5894C521.23 44.9637 520.688 45.5252 520.014 46.2739C519.34 47.0226 518.666 47.7526 517.992 48.4639C517.356 49.1751 516.645 49.9425 515.858 50.7661C515.072 51.5897 514.361 52.3009 513.725 52.8999C513.088 53.4989 512.414 54.0978 511.703 54.6968C511.029 55.2583 510.449 55.7075 509.962 56.0444C509.476 56.3813 509.176 56.5498 509.064 56.5498V56.4375C509.064 56.3252 509.101 56.0819 509.176 55.7075C509.289 55.2957 509.438 54.7904 509.625 54.1914C509.85 53.555 510.093 52.9748 510.355 52.4507C511.778 49.4933 513.537 46.8729 515.634 44.5894C517.768 42.2684 519.939 40.6213 522.147 39.6479C522.559 39.4982 522.84 39.4046 522.99 39.3672C523.177 39.2923 523.327 39.2549 523.439 39.2549C523.626 39.2549 523.832 39.311 524.057 39.4233C524.319 39.5356 524.525 39.5918 524.674 39.5918C524.824 39.5918 525.011 39.5356 525.236 39.4233C525.648 39.2736 525.854 39.049 525.854 38.7495C525.854 38.5249 525.722 38.2816 525.46 38.0195C525.236 37.7201 524.693 37.327 523.832 36.8403C522.971 36.3537 522.091 35.9045 521.193 35.4927C520.332 35.0809 519.77 34.8563 519.508 34.8188C519.284 34.744 519.04 34.7065 518.778 34.7065C517.992 34.7065 517.094 34.875 516.083 35.2119C513.201 36.4847 510.524 38.6934 508.053 41.8379C505.583 44.945 503.973 48.127 503.224 51.3838L503.168 51.9453C503.168 52.6566 503.393 53.5363 503.842 54.5845C504.291 55.6326 505.021 56.6247 506.032 57.5605C507.005 58.459 508.128 58.9082 509.401 58.9082H509.569Z" fill="black"/>
</svg>
